# xmcd
#
# Track frame offsets: 
#        150
#        35549
#        76014
#        94614
#        127527
#        147812
#        182717
#        223033
#
# Disc length: 3553 seconds
#
# Revision: 0
# Processed by: cddbd v1.5.1PL0 Copyright (c) Steve Scherf et al.
# Submitted via: ExactAudioCopy v0.95a5
#
DISCID=5c0ddf08
DTITLE=Blues Traveler - 2001-07-08 Miller Oasis - Summerfest, Milwauke
DTITLE=e, WI
DYEAR=2001
DGENRE=Blues
TTITLE0=Slow Change >
TTITLE1=But Anyway
TTITLE2=Back In The Day
TTITLE3=Felicia
TTITLE4=Freedom >
TTITLE5=You Reach Me
TTITLE6=The Path >
TTITLE7=No Woman, No Cry
EXTD=
EXTT0=
EXTT1=
EXTT2=
EXTT3=
EXTT4=
EXTT5=
EXTT6=
EXTT7=
PLAYORDER=
